<svg xmlns="http://www.w3.org/2000/svg" viewBox="0 0 900 170" width="100%" height="170">
<defs>
  <linearGradient id="grad" x1="0%" y1="0%" x2="0%" y2="100%">
  <style>
    text { font-family: ui-sans-serif,-apple-system,Segoe UI,Helvetica,Arial,sans-serif; }
  </style>
    <stop offset="0%" stop-color="#DD8A53" stop-opacity="0.6" />
    <stop offset="100%" stop-color="#DD8A53" stop-opacity="0.0" />
  </linearGradient>
</defs>
<rect x="0.5" y="0.5" width="899" height="169" rx="10" fill="#0d1117" stroke="#30363d"/>
<g transform="translate(10, 0)">
<text x="76" y="65" font-size="34" font-weight="bold" fill="#e6edf3" text-anchor="middle">619</text><text x="76" y="100" font-size="14" fill="#8b949e" text-anchor="middle">Total Contributions</text><text x="76" y="125" font-size="12" fill="#8b949e" text-anchor="middle">Sep 28, 2025 - Present</text><defs><mask id="mask_fire"><path d="M0 0 h460 v150 h-460 z" fill="white"/><ellipse cx="230" cy="30" rx="10" ry="14" fill="black"/></mask></defs><circle cx="230" cy="55" r="28" fill="none" stroke="#DD8A53" stroke-width="4" mask="url(#mask_fire)"/><path transform="translate(230,19) scale(0.9)" fill="#DD8A53" d="M 1.5 0.67 C 1.5 0.67 2.24 3.32 2.24 5.47 C 2.24 7.53 0.89 9.2 -1.17 9.2 C -3.23 9.2 -4.79 7.53 -4.79 5.47 L -4.76 5.11 C -6.78 7.51 -8 10.62 -8 13.99 C -8 18.41 -4.42 22 0 22 C 4.42 22 8 18.41 8 13.99 C 8 8.6 5.41 3.79 1.5 0.67 Z M -0.29 19 C -2.07 19 -3.51 17.6 -3.51 15.86 C -3.51 14.24 -2.46 13.1 -0.7 12.74 C 1.07 12.38 2.9 11.53 3.92 10.16 C 4.31 11.45 4.51 12.81 4.51 14.2 C 4.51 16.85 2.36 19 -0.29 19 Z"/><text x="230" y="66" font-size="30" font-weight="bold" fill="#e6edf3" text-anchor="middle">1</text><text x="230" y="100" font-size="14" fill="#8b949e" text-anchor="middle">Current Streak</text><text x="230" y="125" font-size="12" fill="#8b949e" text-anchor="middle">Oct 2 - Oct 2</text><text x="384" y="65" font-size="34" font-weight="bold" fill="#e6edf3" text-anchor="middle">28</text><text x="384" y="100" font-size="14" fill="#8b949e" text-anchor="middle">Longest Streak</text><text x="384" y="125" font-size="12" fill="#8b949e" text-anchor="middle">Feb 1 - Feb 28</text>
</g>
<line x1="490" y1="20" x2="490" y2="150" stroke="#30363d" stroke-width="1" />
<text x="510" y="30" font-family="sans-serif" font-size="15" font-weight="bold" fill="#DD8A53">Contribution Activity</text>
<text x="870" y="30" font-family="sans-serif" font-size="11" text-anchor="end" fill="#8b949e">619 in the last year</text>
<path d="M 510.0 148.24074074074073 C 513.4615384615385 148.24074074074073, 513.4615384615385 150.0, 516.9230769230769 150.0 C 520.3846153846154 150.0, 520.3846153846154 120.0925925925926, 523.8461538461538 120.0925925925926 C 527.3076923076923 120.0925925925926, 527.3076923076923 144.72222222222223, 530.7692307692307 144.72222222222223 C 534.2307692307693 144.72222222222223, 534.2307692307693 150.0, 537.6923076923077 150.0 C 541.1538461538462 150.0, 541.1538461538462 141.2037037037037, 544.6153846153846 141.2037037037037 C 548.0769230769231 141.2037037037037, 548.0769230769231 134.16666666666666, 551.5384615384615 134.16666666666666 C 555.0 134.16666666666666, 555.0 150.0, 558.4615384615385 150.0 C 561.9230769230769 150.0, 561.9230769230769 150.0, 565.3846153846154 150.0 C 568.8461538461538 150.0, 568.8461538461538 121.85185185185185, 572.3076923076923 121.85185185185185 C 575.7692307692307 121.85185185185185, 575.7692307692307 55.0, 579.2307692307693 55.0 C 582.6923076923077 55.0, 582.6923076923077 120.0925925925926, 586.1538461538462 120.0925925925926 C 589.6153846153846 120.0925925925926, 589.6153846153846 132.40740740740742, 593.0769230769231 132.40740740740742 C 596.5384615384615 132.40740740740742, 596.5384615384615 148.24074074074073, 600.0 148.24074074074073 C 603.4615384615385 148.24074074074073, 603.4615384615385 150.0, 606.9230769230769 150.0 C 610.3846153846154 150.0, 610.3846153846154 150.0, 613.8461538461538 150.0 C 617.3076923076923 150.0, 617.3076923076923 132.40740740740742, 620.7692307692307 132.40740740740742 C 624.2307692307693 132.40740740740742, 624.2307692307693 106.01851851851852, 627.6923076923077 106.01851851851852 C 631.1538461538462 106.01851851851852, 631.1538461538462 67.31481481481482, 634.6153846153846 67.31481481481482 C 638.0769230769231 67.31481481481482, 638.0769230769231 134.16666666666666, 641.5384615384615 134.16666666666666 C 645.0 134.16666666666666, 645.0 100.74074074074073, 648.4615384615385 100.74074074074073 C 651.9230769230769 100.74074074074073, 651.9230769230769 150.0, 655.3846153846154 150.0 C 658.8461538461538 150.0, 658.8461538461538 144.72222222222223, 662.3076923076924 144.72222222222223 C 665.7692307692308 144.72222222222223, 665.7692307692308 150.0, 669.2307692307693 150.0 C 672.6923076923077 150.0, 672.6923076923077 128.88888888888889, 676.1538461538462 128.88888888888889 C 679.6153846153846 128.88888888888889, 679.6153846153846 127.12962962962963, 683.0769230769231 127.12962962962963 C 686.5384615384615 127.12962962962963, 686.5384615384615 106.01851851851852, 690.0 106.01851851851852 C 693.4615384615385 106.01851851851852, 693.4615384615385 150.0, 696.9230769230769 150.0 C 700.3846153846154 150.0, 700.3846153846154 150.0, 703.8461538461538 150.0 C 707.3076923076923 150.0, 707.3076923076923 142.96296296296296, 710.7692307692307 142.96296296296296 C 714.2307692307693 142.96296296296296, 714.2307692307693 142.96296296296296, 717.6923076923077 142.96296296296296 C 721.1538461538462 142.96296296296296, 721.1538461538462 130.64814814814815, 724.6153846153846 130.64814814814815 C 728.0769230769231 130.64814814814815, 728.0769230769231 100.74074074074073, 731.5384615384615 100.74074074074073 C 735.0 100.74074074074073, 735.0 132.40740740740742, 738.4615384615385 132.40740740740742 C 741.9230769230769 132.40740740740742, 741.9230769230769 130.64814814814815, 745.3846153846154 130.64814814814815 C 748.8461538461538 130.64814814814815, 748.8461538461538 127.12962962962963, 752.3076923076924 127.12962962962963 C 755.7692307692308 127.12962962962963, 755.7692307692308 150.0, 759.2307692307693 150.0 C 762.6923076923077 150.0, 762.6923076923077 123.61111111111111, 766.1538461538462 123.61111111111111 C 769.6153846153846 123.61111111111111, 769.6153846153846 148.24074074074073, 773.0769230769231 148.24074074074073 C 776.5384615384615 148.24074074074073, 776.5384615384615 113.05555555555556, 780.0 113.05555555555556 C 783.4615384615385 113.05555555555556, 783.4615384615385 102.5, 786.9230769230769 102.5 C 790.3846153846154 102.5, 790.3846153846154 132.40740740740742, 793.8461538461538 132.40740740740742 C 797.3076923076923 132.40740740740742, 797.3076923076923 128.88888888888889, 800.7692307692307 128.88888888888889 C 804.2307692307692 128.88888888888889, 804.2307692307692 125.37037037037037, 807.6923076923076 125.37037037037037 C 811.1538461538462 125.37037037037037, 811.1538461538462 137.6851851851852, 814.6153846153846 137.6851851851852 C 818.0769230769231 137.6851851851852, 818.0769230769231 127.12962962962963, 821.5384615384615 127.12962962962963 C 825.0 127.12962962962963, 825.0 150.0, 828.4615384615385 150.0 C 831.9230769230769 150.0, 831.9230769230769 130.64814814814815, 835.3846153846155 130.64814814814815 C 838.8461538461539 130.64814814814815, 838.8461538461539 111.2962962962963, 842.3076923076924 111.2962962962963 C 845.7692307692308 111.2962962962963, 845.7692307692308 134.16666666666666, 849.2307692307693 134.16666666666666 C 852.6923076923077 134.16666666666666, 852.6923076923077 116.57407407407408, 856.1538461538462 116.57407407407408 C 859.6153846153846 116.57407407407408, 859.6153846153846 144.72222222222223, 863.0769230769231 144.72222222222223 C 866.5384615384615 144.72222222222223, 866.5384615384615 63.79629629629629, 870.0 63.79629629629629 L 870.0 150 L 510.0 150 Z" fill="url(#grad)" />
<path d="M 510.0 148.24074074074073 C 513.4615384615385 148.24074074074073, 513.4615384615385 150.0, 516.9230769230769 150.0 C 520.3846153846154 150.0, 520.3846153846154 120.0925925925926, 523.8461538461538 120.0925925925926 C 527.3076923076923 120.0925925925926, 527.3076923076923 144.72222222222223, 530.7692307692307 144.72222222222223 C 534.2307692307693 144.72222222222223, 534.2307692307693 150.0, 537.6923076923077 150.0 C 541.1538461538462 150.0, 541.1538461538462 141.2037037037037, 544.6153846153846 141.2037037037037 C 548.0769230769231 141.2037037037037, 548.0769230769231 134.16666666666666, 551.5384615384615 134.16666666666666 C 555.0 134.16666666666666, 555.0 150.0, 558.4615384615385 150.0 C 561.9230769230769 150.0, 561.9230769230769 150.0, 565.3846153846154 150.0 C 568.8461538461538 150.0, 568.8461538461538 121.85185185185185, 572.3076923076923 121.85185185185185 C 575.7692307692307 121.85185185185185, 575.7692307692307 55.0, 579.2307692307693 55.0 C 582.6923076923077 55.0, 582.6923076923077 120.0925925925926, 586.1538461538462 120.0925925925926 C 589.6153846153846 120.0925925925926, 589.6153846153846 132.40740740740742, 593.0769230769231 132.40740740740742 C 596.5384615384615 132.40740740740742, 596.5384615384615 148.24074074074073, 600.0 148.24074074074073 C 603.4615384615385 148.24074074074073, 603.4615384615385 150.0, 606.9230769230769 150.0 C 610.3846153846154 150.0, 610.3846153846154 150.0, 613.8461538461538 150.0 C 617.3076923076923 150.0, 617.3076923076923 132.40740740740742, 620.7692307692307 132.40740740740742 C 624.2307692307693 132.40740740740742, 624.2307692307693 106.01851851851852, 627.6923076923077 106.01851851851852 C 631.1538461538462 106.01851851851852, 631.1538461538462 67.31481481481482, 634.6153846153846 67.31481481481482 C 638.0769230769231 67.31481481481482, 638.0769230769231 134.16666666666666, 641.5384615384615 134.16666666666666 C 645.0 134.16666666666666, 645.0 100.74074074074073, 648.4615384615385 100.74074074074073 C 651.9230769230769 100.74074074074073, 651.9230769230769 150.0, 655.3846153846154 150.0 C 658.8461538461538 150.0, 658.8461538461538 144.72222222222223, 662.3076923076924 144.72222222222223 C 665.7692307692308 144.72222222222223, 665.7692307692308 150.0, 669.2307692307693 150.0 C 672.6923076923077 150.0, 672.6923076923077 128.88888888888889, 676.1538461538462 128.88888888888889 C 679.6153846153846 128.88888888888889, 679.6153846153846 127.12962962962963, 683.0769230769231 127.12962962962963 C 686.5384615384615 127.12962962962963, 686.5384615384615 106.01851851851852, 690.0 106.01851851851852 C 693.4615384615385 106.01851851851852, 693.4615384615385 150.0, 696.9230769230769 150.0 C 700.3846153846154 150.0, 700.3846153846154 150.0, 703.8461538461538 150.0 C 707.3076923076923 150.0, 707.3076923076923 142.96296296296296, 710.7692307692307 142.96296296296296 C 714.2307692307693 142.96296296296296, 714.2307692307693 142.96296296296296, 717.6923076923077 142.96296296296296 C 721.1538461538462 142.96296296296296, 721.1538461538462 130.64814814814815, 724.6153846153846 130.64814814814815 C 728.0769230769231 130.64814814814815, 728.0769230769231 100.74074074074073, 731.5384615384615 100.74074074074073 C 735.0 100.74074074074073, 735.0 132.40740740740742, 738.4615384615385 132.40740740740742 C 741.9230769230769 132.40740740740742, 741.9230769230769 130.64814814814815, 745.3846153846154 130.64814814814815 C 748.8461538461538 130.64814814814815, 748.8461538461538 127.12962962962963, 752.3076923076924 127.12962962962963 C 755.7692307692308 127.12962962962963, 755.7692307692308 150.0, 759.2307692307693 150.0 C 762.6923076923077 150.0, 762.6923076923077 123.61111111111111, 766.1538461538462 123.61111111111111 C 769.6153846153846 123.61111111111111, 769.6153846153846 148.24074074074073, 773.0769230769231 148.24074074074073 C 776.5384615384615 148.24074074074073, 776.5384615384615 113.05555555555556, 780.0 113.05555555555556 C 783.4615384615385 113.05555555555556, 783.4615384615385 102.5, 786.9230769230769 102.5 C 790.3846153846154 102.5, 790.3846153846154 132.40740740740742, 793.8461538461538 132.40740740740742 C 797.3076923076923 132.40740740740742, 797.3076923076923 128.88888888888889, 800.7692307692307 128.88888888888889 C 804.2307692307692 128.88888888888889, 804.2307692307692 125.37037037037037, 807.6923076923076 125.37037037037037 C 811.1538461538462 125.37037037037037, 811.1538461538462 137.6851851851852, 814.6153846153846 137.6851851851852 C 818.0769230769231 137.6851851851852, 818.0769230769231 127.12962962962963, 821.5384615384615 127.12962962962963 C 825.0 127.12962962962963, 825.0 150.0, 828.4615384615385 150.0 C 831.9230769230769 150.0, 831.9230769230769 130.64814814814815, 835.3846153846155 130.64814814814815 C 838.8461538461539 130.64814814814815, 838.8461538461539 111.2962962962963, 842.3076923076924 111.2962962962963 C 845.7692307692308 111.2962962962963, 845.7692307692308 134.16666666666666, 849.2307692307693 134.16666666666666 C 852.6923076923077 134.16666666666666, 852.6923076923077 116.57407407407408, 856.1538461538462 116.57407407407408 C 859.6153846153846 116.57407407407408, 859.6153846153846 144.72222222222223, 863.0769230769231 144.72222222222223 C 866.5384615384615 144.72222222222223, 866.5384615384615 63.79629629629629, 870.0 63.79629629629629" fill="none" stroke="#DD8A53" stroke-width="2" />
<line x1="510" y1="150" x2="870" y2="150" stroke="#30363d" stroke-dasharray="4" />
<text x="500" y="59" font-family="sans-serif" font-size="9" text-anchor="end" fill="#8b949e">54</text>
<text x="500" y="154" font-family="sans-serif" font-size="9" text-anchor="end" fill="#8b949e">0</text>
</svg>