<svg xmlns="http://www.w3.org/2000/svg" viewBox="0 0 583 549" width="583" height="549" role="img" aria-label="Language Mix" font-family="ui-sans-serif,-apple-system,Segoe UI,Helvetica,Arial,sans-serif"><text x="291.5" y="25" text-anchor="middle" font-size="15" font-weight="700" fill="#e6edf3">Language Mix</text><g transform="translate(291.5,289.0)"><polygon points="0.0,-212.0 183.6,-106.0 183.6,106.0 0.0,212.0 -183.6,106.0 -183.6,-106.0" fill="none" stroke="#30363d" stroke-width="1" opacity="0.85"/><polygon points="0.0,-159.0 137.7,-79.5 137.7,79.5 0.0,159.0 -137.7,79.5 -137.7,-79.5" fill="none" stroke="#30363d" stroke-width="1" opacity="0.72"/><polygon points="0.0,-106.0 91.8,-53.0 91.8,53.0 0.0,106.0 -91.8,53.0 -91.8,-53.0" fill="none" stroke="#30363d" stroke-width="1" opacity="0.60"/><polygon points="0.0,-53.0 45.9,-26.5 45.9,26.5 0.0,53.0 -45.9,26.5 -45.9,-26.5" fill="none" stroke="#30363d" stroke-width="1" opacity="0.47"/><line x1="0" y1="0" x2="0.0" y2="-212.0" stroke="#21262d" stroke-width="1"/><line x1="0" y1="0" x2="183.6" y2="-106.0" stroke="#21262d" stroke-width="1"/><line x1="0" y1="0" x2="183.6" y2="106.0" stroke="#21262d" stroke-width="1"/><line x1="0" y1="0" x2="0.0" y2="212.0" stroke="#21262d" stroke-width="1"/><line x1="0" y1="0" x2="-183.6" y2="106.0" stroke="#21262d" stroke-width="1"/><line x1="0" y1="0" x2="-183.6" y2="-106.0" stroke="#21262d" stroke-width="1"/><g><animateTransform attributeName="transform" type="scale" values="0.04;1" dur="1.1s" calcMode="spline" keyTimes="0;1" keySplines="0.22 1 0.36 1" fill="freeze"/><polygon points="0.0,-207.8 156.1,-90.1 137.7,79.5 0.0,127.2 -146.9,84.8 -101.0,-58.3" fill="#DD8A53" fill-opacity="0.22" stroke="#D97706" stroke-width="2.5" stroke-linejoin="round"/><circle cx="0.0" cy="-207.8" r="3.6" fill="#F59E0B" stroke="#D97706" stroke-width="1.2"/><circle cx="156.1" cy="-90.1" r="3.6" fill="#F59E0B" stroke="#D97706" stroke-width="1.2"/><circle cx="137.7" cy="79.5" r="3.6" fill="#F59E0B" stroke="#D97706" stroke-width="1.2"/><circle cx="0.0" cy="127.2" r="3.6" fill="#F59E0B" stroke="#D97706" stroke-width="1.2"/><circle cx="-146.9" cy="84.8" r="3.6" fill="#F59E0B" stroke="#D97706" stroke-width="1.2"/><circle cx="-101.0" cy="-58.3" r="3.6" fill="#F59E0B" stroke="#D97706" stroke-width="1.2"/></g><text x="0.0" y="-237.0" text-anchor="middle" font-size="13" font-weight="600" fill="#c9d1d9">Python</text><text x="200.9" y="-121.0" text-anchor="start" font-size="13" font-weight="600" fill="#c9d1d9">TypeScript</text><text x="200.9" y="130.0" text-anchor="start" font-size="13" font-weight="600" fill="#c9d1d9">C++</text><text x="0.0" y="246.0" text-anchor="middle" font-size="13" font-weight="600" fill="#c9d1d9">Go</text><text x="-200.9" y="130.0" text-anchor="end" font-size="13" font-weight="600" fill="#c9d1d9">Shell</text><text x="-200.9" y="-121.0" text-anchor="end" font-size="13" font-weight="600" fill="#c9d1d9">JavaScript</text></g></svg>